<svg id="Слой_1" data-name="Слой 1" xmlns="http://www.w3.org/2000/svg" 
width="30" 
heigth="30"
viewBox="0 0 20 20">
<defs><style>.cls-in1{fill:#acacac;}</style>
</defs>
<title>LinkedIn</title><path class="cls-in1" d="M10,0A10,10,0,1,0,20,10,10,10,0,0,0,10,0ZM6.25,4.5A1.09,1.09,0,0,1,7.42,5.59,1.11,1.11,0,0,1,6.17,6.68,1.08,1.08,0,0,1,5,5.59,1.12,1.12,0,0,1,6.25,4.5ZM7.5,14.17H5V7.5H7.5Zm8.33,0H13.48V10.52c0-1-.63-1.24-.86-1.24s-1,.16-1,1.24v3.65H9.17V7.5H11.6v.93a2.21,2.21,0,0,1,2.12-.93c1.17,0,2.11.93,2.11,3Z"/></svg>