
<svg id="Слой_1" data-name="Слой 1" xmlns="http://www.w3.org/2000/svg" 
width="30" 
heigth="30"
viewBox="0 0 21.8 20"><defs><style>.cls-tlg{fill:#acacac;}</style></defs><title>Telegram</title><path class="cls-tlg" d="M20.12,0a2.35,2.35,0,0,0-.81.2L16.85,1.25l-5.1,2.19L1.32,7.93a2.2,2.2,0,0,0-.68.37A1.74,1.74,0,0,0,0,9.6a1.71,1.71,0,0,0,.48,1.16,2.32,2.32,0,0,0,.8.5L5.44,13c.19.56,1.18,3.61,1.42,4.36a3.07,3.07,0,0,0,.48,1,1.72,1.72,0,0,0,.34.32l.17.08h0l0,0,.08,0a1.53,1.53,0,0,0,.4.07,1.39,1.39,0,0,0,.86-.29l0,0L12,16.2l3.32,3.14a1.76,1.76,0,0,0,1.44.66,1.84,1.84,0,0,0,1.31-.59,2,2,0,0,0,.55-1h0c.07-.38,3.13-16.07,3.13-16.07v0a2.4,2.4,0,0,0,0-1.16,1.58,1.58,0,0,0-.68-.93A1.69,1.69,0,0,0,20.12,0ZM20,1.9s0,0,0,0V2h0s-3,15.48-3.13,16.07c0,0,0,.05-.07.1a.74.74,0,0,0-.17-.08v0L12,13.75l-3.2,2.77.95-3.82s6-6.16,6.31-6.52.35-.39.35-.49a.2.2,0,0,0-.22-.22,1,1,0,0,0-.43.19c-1.3.83-7,4.17-9.58,5.66L2,9.6H2L12.46,5.11l5.11-2.19Z"/></svg>