
<svg id="cv" data-name="Слой 1" xmlns="http://www.w3.org/2000/svg" 
width="24" heigth="30" 
viewBox="0 0 16 20">
<defs>
<style>.cls-cv,.cls-2-cv,.cls-4-cv{fill:none;stroke:#acacac;stroke-linejoin:round;}.cls-2-cv{stroke-linecap:round;}.cls-3-cv,.cls-5{fill:#acacac;}.cls-4-cv{stroke-width:0.75px;}.cls-5{font-size:7.47px;font-family:Exo2-SemiBold, "Exo 2";font-weight:600;}.cls-6{letter-spacing:-0.02em;}
</style></defs><title>CV</title><polyline class="cls-cv" points="10.75 2.31 15.12 2.31 15.12 19.45 1.2 19.45 1.2 2.31 6.02 2.31"/><path class="cls-cv" d="M10.48,2.49a2.19,2.19,0,0,0-4.36,0"/><polyline class="cls-2-cv" points="11.67 2.49 11.67 4.66 4.65 4.66 4.65 2.49"/><path class="cls-3-cv" d="M4.91,6.62A1.51,1.51,0,1,1,3.4,8.12a1.51,1.51,0,0,1,1.51-1.5m0-.75A2.26,2.26,0,1,0,7.17,8.12,2.26,2.26,0,0,0,4.91,5.87Z"/><path class="cls-3-cv" d="M7.83,12.45a3.09,3.09,0,0,0-1.37-1.09,4,4,0,0,0-1.55-.3,4,4,0,0,0-1.55.3A3.15,3.15,0,0,0,2,12.45l-.07,0A2.56,2.56,0,0,1,3,10.86a3.45,3.45,0,0,1,3.74,0A2.53,2.53,0,0,1,7.9,12.43Z"/><line class="cls-4-cv" x1="9.73" y1="6.93" x2="13.99" y2="6.93"/><line class="cls-4-cv" x1="9.73" y1="8.87" x2="12.8" y2="8.87"/><line class="cls-4-cv" x1="9.73" y1="10.73" x2="13.99" y2="10.73"/><text class="cls-5" transform="translate(3.7 18.23)">C<tspan class="cls-6" x="4.33" y="0">V</tspan></text><circle class="cls-3-cv" cx="8.16" cy="2.31" r="0.53"/>
</svg>