<svg id="Слой_1" data-name="Слой 1" xmlns="http://www.w3.org/2000/svg" viewBox="0 0 76 120.62"><defs><style>.cls-1{fill:#f43534;}.cls-2,.cls-3{fill:none;stroke:#fff;stroke-linecap:round;}.cls-2{stroke-miterlimit:10;stroke-width:10px;}.cls-3{stroke-linejoin:round;stroke-width:9px;}.cls-4{fill:#fff;}</style></defs><title>PS</title><rect class="cls-1" width="76" height="120.62"/><path class="cls-2" d="M18.54,109.66"/><path class="cls-2" d="M18.54,13.3"/><path class="cls-2" d="M18.54,13.3"/><path class="cls-2" d="M38.53,13.3"/><path class="cls-2" d="M58.5,109.66"/><path class="cls-2" d="M18.54,109.66"/><path class="cls-2" d="M72.76,89.29"/><path class="cls-2" d="M36.54,89.29"/><path class="cls-2" d="M75.31,71.09"/><path class="cls-2" d="M21.11,71.09"/><path class="cls-2" d="M36.54,29.55"/><path class="cls-2" d="M36.54,55.07"/><path class="cls-3" d="M30.71,30.91s12.75-1.36,15.52,9.52a9.22,9.22,0,0,1-3.95,8.73c9.33-.46,13.65-19-4.48-19H32.58c-4.15,0-6.42-.65-6.42,7.79V59.62c0,5.34,2.2,5.47,14.34,6,38.37,0,37.05-52.3-2.7-52.3H17c-6.74,0-6.74,6.07-6.74,6.07v82.68c0,4,2.68,7.44,7.63,7.53,3.83.07,14.73,0,32.19,0,20.42,0,20.23-14.67.74-14.67H26.16s.37-14.56,11.64-14.56H64.73"/><circle class="cls-1" cx="38.48" cy="42.07" r="6.91"/><rect class="cls-4" x="21.71" y="57.18" width="21.86" height="12.92" rx="2.66"/><rect class="cls-1" x="29.82" y="35.16" width="7.05" height="25.89" rx="2.08"/><rect class="cls-1" x="32.57" y="54.41" width="12.82" height="6.64" rx="2.34"/><rect class="cls-1" x="31.37" y="35.16" width="8.97" height="6.64" rx="2.34"/></svg>